solid Exported from Blender-4.0.2
facet normal 0.000000 0.000000 1.000000
outer loop
vertex 10.162494 10.162494 10.162494
vertex -10.162494 10.162494 10.162494
vertex -10.162494 -10.162494 10.162494
endloop
endfacet
facet normal 0.000000 0.000000 1.000000
outer loop
vertex 10.162494 10.162494 10.162494
vertex -10.162494 -10.162494 10.162494
vertex 10.162494 -10.162494 10.162494
endloop
endfacet
facet normal 0.000000 -1.000000 0.000000
outer loop
vertex 10.162494 -10.162494 -10.162494
vertex 10.162494 -10.162494 10.162494
vertex -10.162494 -10.162494 10.162494
endloop
endfacet
facet normal 0.000000 -1.000000 0.000000
outer loop
vertex 10.162494 -10.162494 -10.162494
vertex -10.162494 -10.162494 10.162494
vertex -10.162494 -10.162494 -10.162494
endloop
endfacet
facet normal -1.000000 0.000000 0.000000
outer loop
vertex -10.162494 -10.162494 -10.162494
vertex -10.162494 -10.162494 10.162494
vertex -10.162494 10.162494 10.162494
endloop
endfacet
facet normal -1.000000 0.000000 0.000000
outer loop
vertex -10.162494 -10.162494 -10.162494
vertex -10.162494 10.162494 10.162494
vertex -10.162494 10.162494 -10.162494
endloop
endfacet
facet normal 0.000000 0.000000 -1.000000
outer loop
vertex -10.162494 10.162494 -10.162494
vertex 10.162494 10.162494 -10.162494
vertex 10.162494 -10.162494 -10.162494
endloop
endfacet
facet normal 0.000000 0.000000 -1.000000
outer loop
vertex -10.162494 10.162494 -10.162494
vertex 10.162494 -10.162494 -10.162494
vertex -10.162494 -10.162494 -10.162494
endloop
endfacet
facet normal 1.000000 0.000000 0.000000
outer loop
vertex 10.162494 10.162494 -10.162494
vertex 10.162494 10.162494 10.162494
vertex 10.162494 -10.162494 10.162494
endloop
endfacet
facet normal 1.000000 0.000000 0.000000
outer loop
vertex 10.162494 10.162494 -10.162494
vertex 10.162494 -10.162494 10.162494
vertex 10.162494 -10.162494 -10.162494
endloop
endfacet
facet normal 0.000000 1.000000 0.000000
outer loop
vertex -10.162494 10.162494 -10.162494
vertex -10.162494 10.162494 10.162494
vertex 10.162494 10.162494 10.162494
endloop
endfacet
facet normal 0.000000 1.000000 0.000000
outer loop
vertex -10.162494 10.162494 -10.162494
vertex 10.162494 10.162494 10.162494
vertex 10.162494 10.162494 -10.162494
endloop
endfacet
endsolid Exported from Blender-4.0.2
